# xmcd
#
# Track frame offsets:
#	150
#	16457
#	31697
#	45465
#	59692
#	74380
#	88820
#	105265
#	120035
#	135152
#	147892
#	161157
#	176165
#	191945
#
# Disc length: 2769 seconds
#
# Revision: 0
# Processed by: cddbd v1.5.2PL0 Copyright (c) Steve Scherf et al.
# Submitted via: audiograbber 1.83.01
#
DISCID=b90acf0e
DTITLE=Various Artist - Street Sweepers
DYEAR=1999
DGENRE=Reggae
TTITLE0=Signal
TTITLE1=Say Yeah
TTITLE2=You
TTITLE3=Work With It
TTITLE4=Move
TTITLE5=Happy Go Lucky
TTITLE6=Battery Doly
TTITLE7=Haffi Get Da Gal Yah
TTITLE8=Done With The Place
TTITLE9=We Owna Show
TTITLE10=Lay Dun Pon It
TTITLE11=Got To Be
TTITLE12=Full Ah Hype
TTITLE13=Zuggie Zuggie]
EXTD=
EXTT0=
EXTT1=
EXTT2=
EXTT3=
EXTT4=
EXTT5=
EXTT6=
EXTT7=
EXTT8=
EXTT9=
EXTT10=
EXTT11=
EXTT12=
EXTT13=
PLAYORDER=
